solid Frie_adapter_obj_V2
facet normal 0.0 0.0 1.0
  outer loop
    vertex 141.573486328125 -64.85415649414062 -3.442629337310791
    vertex 142.1519317626953 -52.85549926757812 -3.442629337310791
    vertex 141.07289123535156 -58.816749572753906 -3.442629337310791
  endloop
endfacet
facet normal 0.0 0.0 1.0
  outer loop
    vertex 142.1519317626953 -52.85549926757812 -3.442629337310791
    vertex 141.573486328125 -64.85415649414062 -3.442629337310791
    vertex 143.61961364746094 -70.55628204345703 -3.442629337310791
  endloop
endfacet
facet normal 0.0 0.0 1.0
  outer loop
    vertex 142.1519317626953 -52.85549926757812 -3.442629337310791
    vertex 143.61961364746094 -70.55628204345703 -3.442629337310791
    vertex 144.7371063232422 -47.376651763916016 -3.442629337310791
  endloop
endfacet
facet normal 0.0 0.0 1.0
  outer loop
    vertex 144.7371063232422 -47.376651763916016 -3.442629337310791
    vertex 143.61961364746094 -70.55628204345703 -3.442629337310791
    vertex 147.0718536376953 -75.53453063964844 -3.442629337310791
  endloop
endfacet
facet normal 0.0 0.0 1.0
  outer loop
    vertex 144.7371063232422 -47.376651763916016 -3.442629337310791
    vertex 147.0718536376953 -75.53453063964844 -3.442629337310791
    vertex 146.4348907470703 -61.57316589355468 -3.442629337310791
  endloop
endfacet
facet normal 0.0 0.0 1.0
  outer loop
    vertex 146.4348907470703 -61.57316589355468 -3.442629337310791
    vertex 147.0718536376953 -75.53453063964844 -3.442629337310791
    vertex 147.46620178222653 -66.12886810302733 -3.442629337310791
  endloop
endfacet
facet normal 0.0 0.0 1.0
  outer loop
    vertex 147.46620178222653 -66.12886810302733 -3.442629337310791
    vertex 147.0718536376953 -75.53453063964844 -3.442629337310791
    vertex 151.69493103027344 -79.44964599609375 -3.442629337310791
  endloop
endfacet
facet normal 0.0 0.0 1.0
  outer loop
    vertex 147.46620178222653 -66.12886810302733 -3.442629337310791
    vertex 151.69493103027344 -79.44964599609375 -3.442629337310791
    vertex 149.64146423339844 -70.26241302490234 -3.442629337310791
  endloop
endfacet
facet normal 0.0 0.0 1.0
  outer loop
    vertex 149.64146423339844 -70.26241302490234 -3.442629337310791
    vertex 151.69493103027344 -79.44964599609375 -3.442629337310791
    vertex 152.81243896484375 -73.69210815429688 -3.442629337310791
  endloop
endfacet
facet normal 0.0 0.0 1.0
  outer loop
    vertex 152.81243896484375 -73.69210815429688 -3.442629337310791
    vertex 151.69493103027344 -79.44964599609375 -3.442629337310791
    vertex 157.1737823486328 -82.03481292724608 -3.442629337310791
  endloop
endfacet
facet normal 0.0 0.0 1.0
  outer loop
    vertex 152.81243896484375 -73.69210815429688 -3.442629337310791
    vertex 157.1737823486328 -82.03481292724608 -3.442629337310791
    vertex 156.76304626464844 -76.1842269897461 -3.442629337310791
  endloop
endfacet
facet normal 0.0 0.0 1.0
  outer loop
    vertex 156.76304626464844 -76.1842269897461 -3.442629337310791
    vertex 157.1737823486328 -82.03481292724608 -3.442629337310791
    vertex 161.22406005859375 -77.56893920898438 -3.442629337310791
  endloop
endfacet
facet normal 0.0 0.0 1.0
  outer loop
    vertex 161.22406005859375 -77.56893920898438 -3.442629337310791
    vertex 157.1737823486328 -82.03481292724608 -3.442629337310791
    vertex 163.13502502441403 -83.11386871337889 -3.442629337310791
  endloop
endfacet
facet normal 0.0 0.0 1.0
  outer loop
    vertex 161.22406005859375 -77.56893920898438 -3.442629337310791
    vertex 163.13502502441403 -83.11386871337889 -3.442629337310791
    vertex 165.89144897460938 -77.75186920166014 -3.442629337310791
  endloop
endfacet
facet normal 0.0 0.0 1.0
  outer loop
    vertex 165.89144897460938 -77.75186920166014 -3.442629337310791
    vertex 163.13502502441403 -83.11386871337889 -3.442629337310791
    vertex 169.17243957519528 -82.61326599121092 -3.442629337310791
  endloop
endfacet
facet normal 0.0 0.0 1.0
  outer loop
    vertex 165.89144897460938 -77.75186920166014 -3.442629337310791
    vertex 169.17243957519528 -82.61326599121092 -3.442629337310791
    vertex 170.44714355468747 -76.7205581665039 -3.442629337310791
  endloop
endfacet
facet normal 0.0 0.0 1.0
  outer loop
    vertex 170.44714355468747 -76.7205581665039 -3.442629337310791
    vertex 169.17243957519528 -82.61326599121092 -3.442629337310791
    vertex 174.87455749511716 -80.56712341308594 -3.442629337310791
  endloop
endfacet
facet normal 0.0 0.0 1.0
  outer loop
    vertex 170.44714355468747 -76.7205581665039 -3.442629337310791
    vertex 174.87455749511716 -80.56712341308594 -3.442629337310791
    vertex 174.58070373535153 -74.54529571533203 -3.442629337310791
  endloop
endfacet
facet normal 0.0 0.0 1.0
  outer loop
    vertex 174.58070373535153 -74.54529571533203 -3.442629337310791
    vertex 174.87455749511716 -80.56712341308594 -3.442629337310791
    vertex 178.01039123535156 -71.37430572509764 -3.442629337310791
  endloop
endfacet
facet normal 0.0 0.0 1.0
  outer loop
    vertex 178.01039123535156 -71.37430572509764 -3.442629337310791
    vertex 174.87455749511716 -80.56712341308594 -3.442629337310791
    vertex 179.8528137207031 -77.1148910522461 -3.442629337310791
  endloop
endfacet
facet normal 0.0 0.0 1.0
  outer loop
    vertex 178.01039123535156 -71.37430572509764 -3.442629337310791
    vertex 179.8528137207031 -77.1148910522461 -3.442629337310791
    vertex 180.5025177001953 -67.42369079589844 -3.442629337310791
  endloop
endfacet
facet normal 0.0 0.0 1.0
  outer loop
    vertex 180.5025177001953 -67.42369079589844 -3.442629337310791
    vertex 179.8528137207031 -77.1148910522461 -3.442629337310791
    vertex 183.7679290771484 -72.49182128906249 -3.442629337310791
  endloop
endfacet
facet normal 0.0 0.0 1.0
  outer loop
    vertex 180.5025177001953 -67.42369079589844 -3.442629337310791
    vertex 183.7679290771484 -72.49182128906249 -3.442629337310791
    vertex 181.88720703125 -62.962688446044915 -3.442629337310791
  endloop
endfacet
facet normal 0.0 0.0 1.0
  outer loop
    vertex 181.88720703125 -62.962688446044915 -3.442629337310791
    vertex 183.7679290771484 -72.49182128906249 -3.442629337310791
    vertex 182.07014465332028 -58.295303344726555 -3.442629337310791
  endloop
endfacet
facet normal 0.0 0.0 1.0
  outer loop
    vertex 144.7371063232422 -47.376651763916016 -3.442629337310791
    vertex 146.61781311035156 -56.90578079223632 -3.442629337310791
    vertex 148.6522216796875 -42.753578186035156 -3.442629337310791
  endloop
endfacet
facet normal 0.0 0.0 1.0
  outer loop
    vertex 146.61781311035156 -56.90578079223632 -3.442629337310791
    vertex 144.7371063232422 -47.376651763916016 -3.442629337310791
    vertex 146.4348907470703 -61.57316589355468 -3.442629337310791
  endloop
endfacet
facet normal 0.0 0.0 1.0
  outer loop
    vertex 148.6522216796875 -42.753578186035156 -3.442629337310791
    vertex 146.61781311035156 -56.90578079223632 -3.442629337310791
    vertex 148.00251770019528 -52.44477462768554 -3.442629337310791
  endloop
endfacet
facet normal 0.0 0.0 1.0
  outer loop
    vertex 148.6522216796875 -42.753578186035156 -3.442629337310791
    vertex 148.00251770019528 -52.44477462768554 -3.442629337310791
    vertex 150.49464416503903 -48.49416351318359 -3.442629337310791
  endloop
endfacet
facet normal 0.0 0.0 1.0
  outer loop
    vertex 148.6522216796875 -42.753578186035156 -3.442629337310791
    vertex 150.49464416503903 -48.49416351318359 -3.442629337310791
    vertex 153.63046264648435 -39.30134201049805 -3.442629337310791
  endloop
endfacet
facet normal 0.0 0.0 1.0
  outer loop
    vertex 153.63046264648435 -39.30134201049805 -3.442629337310791
    vertex 150.49464416503903 -48.49416351318359 -3.442629337310791
    vertex 153.92433166503906 -45.32317733764648 -3.442629337310791
  endloop
endfacet
facet normal 0.0 0.0 1.0
  outer loop
    vertex 153.63046264648435 -39.30134201049805 -3.442629337310791
    vertex 153.92433166503906 -45.32317733764648 -3.442629337310791
    vertex 159.3325958251953 -37.255203247070305 -3.442629337310791
  endloop
endfacet
facet normal 0.0 0.0 1.0
  outer loop
    vertex 159.3325958251953 -37.255203247070305 -3.442629337310791
    vertex 153.92433166503906 -45.32317733764648 -3.442629337310791
    vertex 158.05789184570312 -43.14790725708007 -3.442629337310791
  endloop
endfacet
facet normal 0.0 0.0 1.0
  outer loop
    vertex 159.3325958251953 -37.255203247070305 -3.442629337310791
    vertex 158.05789184570312 -43.14790725708007 -3.442629337310791
    vertex 162.61358642578122 -42.116600036621094 -3.442629337310791
  endloop
endfacet
facet normal 0.0 0.0 1.0
  outer loop
    vertex 159.3325958251953 -37.255203247070305 -3.442629337310791
    vertex 162.61358642578122 -42.116600036621094 -3.442629337310791
    vertex 165.36999511718747 -36.75460052490234 -3.442629337310791
  endloop
endfacet
facet normal 0.0 0.0 1.0
  outer loop
    vertex 165.36999511718747 -36.75460052490234 -3.442629337310791
    vertex 162.61358642578122 -42.116600036621094 -3.442629337310791
    vertex 167.2809600830078 -42.299530029296875 -3.442629337310791
  endloop
endfacet
facet normal 0.0 0.0 1.0
  outer loop
    vertex 165.36999511718747 -36.75460052490234 -3.442629337310791
    vertex 167.2809600830078 -42.299530029296875 -3.442629337310791
    vertex 171.33123779296875 -37.83365249633789 -3.442629337310791
  endloop
endfacet
facet normal 0.0 0.0 1.0
  outer loop
    vertex 171.33123779296875 -37.83365249633789 -3.442629337310791
    vertex 167.2809600830078 -42.299530029296875 -3.442629337310791
    vertex 171.74197387695312 -43.68424606323242 -3.442629337310791
  endloop
endfacet
facet normal 0.0 0.0 1.0
  outer loop
    vertex 171.33123779296875 -37.83365249633789 -3.442629337310791
    vertex 171.74197387695312 -43.68424606323242 -3.442629337310791
    vertex 176.81010437011716 -40.41882705688476 -3.442629337310791
  endloop
endfacet
facet normal 0.0 0.0 1.0
  outer loop
    vertex 176.81010437011716 -40.41882705688476 -3.442629337310791
    vertex 171.74197387695312 -43.68424606323242 -3.442629337310791
    vertex 175.6925811767578 -46.17636108398437 -3.442629337310791
  endloop
endfacet
facet normal 0.0 0.0 1.0
  outer loop
    vertex 176.81010437011716 -40.41882705688476 -3.442629337310791
    vertex 175.6925811767578 -46.17636108398437 -3.442629337310791
    vertex 178.86358642578125 -49.606056213378906 -3.442629337310791
  endloop
endfacet
facet normal 0.0 0.0 1.0
  outer loop
    vertex 176.81010437011716 -40.41882705688476 -3.442629337310791
    vertex 178.86358642578125 -49.606056213378906 -3.442629337310791
    vertex 181.43318176269528 -44.33393859863281 -3.442629337310791
  endloop
endfacet
facet normal 0.0 0.0 1.0
  outer loop
    vertex 181.43318176269528 -44.33393859863281 -3.442629337310791
    vertex 178.86358642578125 -49.606056213378906 -3.442629337310791
    vertex 181.03883361816406 -53.7396011352539 -3.442629337310791
  endloop
endfacet
facet normal 0.0 0.0 1.0
  outer loop
    vertex 181.43318176269528 -44.33393859863281 -3.442629337310791
    vertex 181.03883361816406 -53.7396011352539 -3.442629337310791
    vertex 182.07014465332028 -58.295303344726555 -3.442629337310791
  endloop
endfacet
facet normal 0.0 0.0 1.0
  outer loop
    vertex 181.43318176269528 -44.33393859863281 -3.442629337310791
    vertex 182.07014465332028 -58.295303344726555 -3.442629337310791
    vertex 184.88540649414062 -49.31218719482421 -3.442629337310791
  endloop
endfacet
facet normal 0.0 0.0 1.0
  outer loop
    vertex 184.88540649414062 -49.31218719482421 -3.442629337310791
    vertex 182.07014465332028 -58.295303344726555 -3.442629337310791
    vertex 183.7679290771484 -72.49182128906249 -3.442629337310791
  endloop
endfacet
facet normal 0.0 0.0 1.0
  outer loop
    vertex 184.88540649414062 -49.31218719482421 -3.442629337310791
    vertex 183.7679290771484 -72.49182128906249 -3.442629337310791
    vertex 186.3531036376953 -67.01296997070312 -3.442629337310791
  endloop
endfacet
facet normal 0.0 0.0 1.0
  outer loop
    vertex 184.88540649414062 -49.31218719482421 -3.442629337310791
    vertex 186.3531036376953 -67.01296997070312 -3.442629337310791
    vertex 186.9315490722656 -55.01430892944335 -3.442629337310791
  endloop
endfacet
facet normal 0.0 0.0 1.0
  outer loop
    vertex 186.9315490722656 -55.01430892944335 -3.442629337310791
    vertex 186.3531036376953 -67.01296997070312 -3.442629337310791
    vertex 187.43214416503906 -61.05171585083007 -3.442629337310791
  endloop
endfacet
facet normal 0.8457783979725295 -0.5335343489626713 0.0
  outer loop
    vertex 150.49464416503903 -48.49416351318359 -3.442629337310791
    vertex 148.00251770019528 -52.44477462768554 1.2573704719543457
    vertex 148.00251770019528 -52.44477462768554 -3.442629337310791
  endloop
endfacet
facet normal 0.8457783979725295 -0.5335343489626713 0.0
  outer loop
    vertex 148.00251770019528 -52.44477462768554 1.2573704719543457
    vertex 150.49464416503903 -48.49416351318359 -3.442629337310791
    vertex 150.49464416503903 -48.49416351318359 1.2573704719543457
  endloop
endfacet
facet normal 0.7342587801791508 0.6788696809622784 0.0
  outer loop
    vertex 149.64146423339844 -70.26241302490234 -3.442629337310791
    vertex 152.81243896484375 -73.69210815429688 1.2573704719543457
    vertex 152.81243896484375 -73.69210815429688 -3.442629337310791
  endloop
endfacet
facet normal 0.7342587801791508 0.6788696809622784 0.0
  outer loop
    vertex 152.81243896484375 -73.69210815429688 1.2573704719543457
    vertex 149.64146423339844 -70.26241302490234 -3.442629337310791
    vertex 149.64146423339844 -70.26241302490234 1.2573704719543457
  endloop
endfacet
facet normal 0.9753210774399886 0.22079129489474827 0.0
  outer loop
    vertex 146.4348907470703 -61.57316589355468 -3.442629337310791
    vertex 147.46620178222653 -66.12886810302733 1.2573704719543457
    vertex 147.46620178222653 -66.12886810302733 -3.442629337310791
  endloop
endfacet
facet normal 0.9753210774399886 0.22079129489474827 0.0
  outer loop
    vertex 147.46620178222653 -66.12886810302733 1.2573704719543457
    vertex 146.4348907470703 -61.57316589355468 -3.442629337310791
    vertex 146.4348907470703 -61.57316589355468 1.2573704719543457
  endloop
endfacet
facet normal 0.46569816481321025 -0.8849436249217281 0.0
  outer loop
    vertex 158.05789184570312 -43.14790725708007 1.2573704719543457
    vertex 153.92433166503906 -45.32317733764648 -3.442629337310791
    vertex 158.05789184570312 -43.14790725708007 -3.442629337310791
  endloop
endfacet
facet normal 0.46569816481321025 -0.8849436249217281 0.0
  outer loop
    vertex 153.92433166503906 -45.32317733764648 -3.442629337310791
    vertex 158.05789184570312 -43.14790725708007 1.2573704719543457
    vertex 153.92433166503906 -45.32317733764648 1.2573704719543457
  endloop
endfacet
facet normal 0.8849435895872585 0.46569823195758187 0.0
  outer loop
    vertex 147.46620178222653 -66.12886810302733 -3.442629337310791
    vertex 149.64146423339844 -70.26241302490234 1.2573704719543457
    vertex 149.64146423339844 -70.26241302490234 -3.442629337310791
  endloop
endfacet
facet normal 0.8849435895872585 0.46569823195758187 0.0
  outer loop
    vertex 149.64146423339844 -70.26241302490234 1.2573704719543457
    vertex 147.46620178222653 -66.12886810302733 -3.442629337310791
    vertex 147.46620178222653 -66.12886810302733 1.2573704719543457
  endloop
endfacet
facet normal 0.22079086975738 -0.9753211736816647 0.0
  outer loop
    vertex 162.61358642578122 -42.116600036621094 1.2573704719543457
    vertex 158.05789184570312 -43.14790725708007 -3.442629337310791
    vertex 162.61358642578122 -42.116600036621094 -3.442629337310791
  endloop
endfacet
facet normal 0.22079086975738 -0.9753211736816647 0.0
  outer loop
    vertex 158.05789184570312 -43.14790725708007 -3.442629337310791
    vertex 162.61358642578122 -42.116600036621094 1.2573704719543457
    vertex 158.05789184570312 -43.14790725708007 1.2573704719543457
  endloop
endfacet
facet normal -0.03916326809836986 -0.9992328249371386 3.394303762031906e-08
  outer loop
    vertex 167.2809600830078 -42.299530029296875 1.2573704719543457
    vertex 162.61358642578122 -42.116600036621094 -3.442629337310791
    vertex 167.2809600830078 -42.299530029296875 -3.442629337310791
  endloop
endfacet
facet normal -0.03916326809836986 -0.9992328249371386 3.394303762031906e-08
  outer loop
    vertex 162.61358642578122 -42.116600036621094 -3.442629337310791
    vertex 167.2809600830078 -42.299530029296875 1.2573704719543457
    vertex 162.61358642578122 -42.116600036621094 1.2573704719543457
  endloop
endfacet
facet normal -0.884944935858721 -0.4656956736947468 0.0
  outer loop
    vertex 178.86358642578125 -49.606056213378906 1.2573704719543457
    vertex 181.03883361816406 -53.7396011352539 -3.442629337310791
    vertex 181.03883361816406 -53.7396011352539 1.2573704719543457
  endloop
endfacet
facet normal -0.884944935858721 -0.4656956736947468 0.0
  outer loop
    vertex 181.03883361816406 -53.7396011352539 -3.442629337310791
    vertex 178.86358642578125 -49.606056213378906 1.2573704719543457
    vertex 178.86358642578125 -49.606056213378906 -3.442629337310791
  endloop
endfacet
facet normal 0.533533549079132 0.8457789025549322 0.0
  outer loop
    vertex 152.81243896484375 -73.69210815429688 1.2573704719543457
    vertex 156.76304626464844 -76.1842269897461 -3.442629337310791
    vertex 152.81243896484375 -73.69210815429688 -3.442629337310791
  endloop
endfacet
facet normal 0.533533549079132 0.8457789025549322 0.0
  outer loop
    vertex 156.76304626464844 -76.1842269897461 -3.442629337310791
    vertex 152.81243896484375 -73.69210815429688 1.2573704719543457
    vertex 156.76304626464844 -76.1842269897461 1.2573704719543457
  endloop
endfacet
facet normal -0.2964506661524123 -0.9550481676532294 0.0
  outer loop
    vertex 171.74197387695312 -43.68424606323242 1.2573704719543457
    vertex 167.2809600830078 -42.299530029296875 -3.442629337310791
    vertex 171.74197387695312 -43.68424606323242 -3.442629337310791
  endloop
endfacet
facet normal -0.2964506661524123 -0.9550481676532294 0.0
  outer loop
    vertex 167.2809600830078 -42.299530029296875 -3.442629337310791
    vertex 171.74197387695312 -43.68424606323242 1.2573704719543457
    vertex 167.2809600830078 -42.299530029296875 1.2573704719543457
  endloop
endfacet
facet normal -0.9753210774399886 -0.22079129489474827 0.0
  outer loop
    vertex 181.03883361816406 -53.7396011352539 1.2573704719543457
    vertex 182.07014465332028 -58.295303344726555 -3.442629337310791
    vertex 182.07014465332028 -58.295303344726555 1.2573704719543457
  endloop
endfacet
facet normal -0.9753210774399886 -0.22079129489474827 0.0
  outer loop
    vertex 182.07014465332028 -58.295303344726555 -3.442629337310791
    vertex 181.03883361816406 -53.7396011352539 1.2573704719543457
    vertex 181.03883361816406 -53.7396011352539 -3.442629337310791
  endloop
endfacet
facet normal -0.9992327643767079 0.03916481323946791 -2.6562993297638467e-16
  outer loop
    vertex 182.07014465332028 -58.295303344726555 1.2573704719543457
    vertex 181.88720703125 -62.962688446044915 -3.442629337310791
    vertex 181.88720703125 -62.962688446044915 1.2573704719543457
  endloop
endfacet
facet normal -0.9992327643767079 0.03916481323946791 -2.6562993297638467e-16
  outer loop
    vertex 181.88720703125 -62.962688446044915 -3.442629337310791
    vertex 182.07014465332028 -58.295303344726555 1.2573704719543457
    vertex 182.07014465332028 -58.295303344726555 -3.442629337310791
  endloop
endfacet
facet normal -0.22079164662731898 0.9753209978153845 0.0
  outer loop
    vertex 165.89144897460938 -77.75186920166014 1.2573704719543457
    vertex 170.44714355468747 -76.7205581665039 -3.442629337310791
    vertex 165.89144897460938 -77.75186920166014 -3.442629337310791
  endloop
endfacet
facet normal -0.22079164662731898 0.9753209978153845 0.0
  outer loop
    vertex 170.44714355468747 -76.7205581665039 -3.442629337310791
    vertex 165.89144897460938 -77.75186920166014 1.2573704719543457
    vertex 170.44714355468747 -76.7205581665039 1.2573704719543457
  endloop
endfacet
facet normal -0.8457786304477694 0.5335339804341385 0.0
  outer loop
    vertex 180.5025177001953 -67.42369079589844 1.2573704719543457
    vertex 178.01039123535156 -71.37430572509764 -3.442629337310791
    vertex 178.01039123535156 -71.37430572509764 1.2573704719543457
  endloop
endfacet
facet normal -0.8457786304477694 0.5335339804341385 0.0
  outer loop
    vertex 178.01039123535156 -71.37430572509764 -3.442629337310791
    vertex 180.5025177001953 -67.42369079589844 1.2573704719543457
    vertex 180.5025177001953 -67.42369079589844 -3.442629337310791
  endloop
endfacet
facet normal -0.6788722563467681 0.7342563990614233 0.0
  outer loop
    vertex 174.58070373535153 -74.54529571533203 1.2573704719543457
    vertex 178.01039123535156 -71.37430572509764 -3.442629337310791
    vertex 174.58070373535153 -74.54529571533203 -3.442629337310791
  endloop
endfacet
facet normal -0.6788722563467681 0.7342563990614233 0.0
  outer loop
    vertex 178.01039123535156 -71.37430572509764 -3.442629337310791
    vertex 174.58070373535153 -74.54529571533203 1.2573704719543457
    vertex 178.01039123535156 -71.37430572509764 1.2573704719543457
  endloop
endfacet
facet normal 0.039163150420918814 0.9992328295493041 0.0
  outer loop
    vertex 161.22406005859375 -77.56893920898438 1.2573704719543457
    vertex 165.89144897460938 -77.75186920166014 -3.442629337310791
    vertex 161.22406005859375 -77.56893920898438 -3.442629337310791
  endloop
endfacet
facet normal 0.039163150420918814 0.9992328295493041 0.0
  outer loop
    vertex 165.89144897460938 -77.75186920166014 -3.442629337310791
    vertex 161.22406005859375 -77.56893920898438 1.2573704719543457
    vertex 165.89144897460938 -77.75186920166014 1.2573704719543457
  endloop
endfacet
facet normal 0.2964499212446548 0.9550483988751763 0.0
  outer loop
    vertex 156.76304626464844 -76.1842269897461 1.2573704719543457
    vertex 161.22406005859375 -77.56893920898438 -3.442629337310791
    vertex 156.76304626464844 -76.1842269897461 -3.442629337310791
  endloop
endfacet
facet normal 0.2964499212446548 0.9550483988751763 0.0
  outer loop
    vertex 161.22406005859375 -77.56893920898438 -3.442629337310791
    vertex 156.76304626464844 -76.1842269897461 1.2573704719543457
    vertex 161.22406005859375 -77.56893920898438 1.2573704719543457
  endloop
endfacet
facet normal -0.955049570886667 0.2964461454449919 0.0
  outer loop
    vertex 181.88720703125 -62.962688446044915 1.2573704719543457
    vertex 180.5025177001953 -67.42369079589844 -3.442629337310791
    vertex 180.5025177001953 -67.42369079589844 1.2573704719543457
  endloop
endfacet
facet normal -0.955049570886667 0.2964461454449919 0.0
  outer loop
    vertex 180.5025177001953 -67.42369079589844 -3.442629337310791
    vertex 181.88720703125 -62.962688446044915 1.2573704719543457
    vertex 181.88720703125 -62.962688446044915 -3.442629337310791
  endloop
endfacet
facet normal -0.4656968856878222 0.884944298055343 0.0
  outer loop
    vertex 170.44714355468747 -76.7205581665039 1.2573704719543457
    vertex 174.58070373535153 -74.54529571533203 -3.442629337310791
    vertex 170.44714355468747 -76.7205581665039 -3.442629337310791
  endloop
endfacet
facet normal -0.4656968856878222 0.884944298055343 0.0
  outer loop
    vertex 174.58070373535153 -74.54529571533203 -3.442629337310791
    vertex 170.44714355468747 -76.7205581665039 1.2573704719543457
    vertex 174.58070373535153 -74.54529571533203 1.2573704719543457
  endloop
endfacet
facet normal 0.0 0.0 1.0
  outer loop
    vertex 144.42958068847656 -65.78432464599608 1.2573704719543457
    vertex 144.1603240966797 -55.08909606933593 1.2573704719543457
    vertex 143.59091186523435 -60.454437255859375 1.2573704719543457
  endloop
endfacet
facet normal 0.0 0.0 1.0
  outer loop
    vertex 144.1603240966797 -55.08909606933593 1.2573704719543457
    vertex 144.42958068847656 -65.78432464599608 1.2573704719543457
    vertex 146.0989532470703 -50.05394744873046 1.2573704719543457
  endloop
endfacet
facet normal 0.0 0.0 1.0
  outer loop
    vertex 146.0989532470703 -50.05394744873046 1.2573704719543457
    vertex 144.42958068847656 -65.78432464599608 1.2573704719543457
    vertex 146.61915588378906 -70.71553802490234 1.2573704719543457
  endloop
endfacet
facet normal 0.0 0.0 1.0
  outer loop
    vertex 146.0989532470703 -50.05394744873046 1.2573704719543457
    vertex 146.61915588378906 -70.71553802490234 1.2573704719543457
    vertex 146.4348907470703 -61.57316589355468 1.2573704719543457
  endloop
endfacet
facet normal 0.0 0.0 1.0
  outer loop
    vertex 146.4348907470703 -61.57316589355468 1.2573704719543457
    vertex 146.61915588378906 -70.71553802490234 1.2573704719543457
    vertex 147.46620178222653 -66.12886810302733 1.2573704719543457
  endloop
endfacet
facet normal 0.0 0.0 1.0
  outer loop
    vertex 147.46620178222653 -66.12886810302733 1.2573704719543457
    vertex 146.61915588378906 -70.71553802490234 1.2573704719543457
    vertex 150.01040649414062 -74.91202545166014 1.2573704719543457
  endloop
endfacet
facet normal 0.0 0.0 1.0
  outer loop
    vertex 147.46620178222653 -66.12886810302733 1.2573704719543457
    vertex 150.01040649414062 -74.91202545166014 1.2573704719543457
    vertex 149.64146423339844 -70.26241302490234 1.2573704719543457
  endloop
endfacet
facet normal 0.0 0.0 1.0
  outer loop
    vertex 149.64146423339844 -70.26241302490234 1.2573704719543457
    vertex 150.01040649414062 -74.91202545166014 1.2573704719543457
    vertex 152.81243896484375 -73.69210815429688 1.2573704719543457
  endloop
endfacet
facet normal 0.0 0.0 1.0
  outer loop
    vertex 152.81243896484375 -73.69210815429688 1.2573704719543457
    vertex 150.01040649414062 -74.91202545166014 1.2573704719543457
    vertex 154.3722381591797 -78.08779907226562 1.2573704719543457
  endloop
endfacet
facet normal 0.0 0.0 1.0
  outer loop
    vertex 152.81243896484375 -73.69210815429688 1.2573704719543457
    vertex 154.3722381591797 -78.08779907226562 1.2573704719543457
    vertex 156.76304626464844 -76.1842269897461 1.2573704719543457
  endloop
endfacet
facet normal 0.0 0.0 1.0
  outer loop
    vertex 156.76304626464844 -76.1842269897461 1.2573704719543457
    vertex 154.3722381591797 -78.08779907226562 1.2573704719543457
    vertex 159.40737915039062 -80.02644348144531 1.2573704719543457
  endloop
endfacet
facet normal 0.0 0.0 1.0
  outer loop
    vertex 156.76304626464844 -76.1842269897461 1.2573704719543457
    vertex 159.40737915039062 -80.02644348144531 1.2573704719543457
    vertex 161.22406005859375 -77.56893920898438 1.2573704719543457
  endloop
endfacet
facet normal 0.0 0.0 1.0
  outer loop
    vertex 161.22406005859375 -77.56893920898438 1.2573704719543457
    vertex 159.40737915039062 -80.02644348144531 1.2573704719543457
    vertex 164.77272033691403 -80.5958251953125 1.2573704719543457
  endloop
endfacet
facet normal 0.0 0.0 1.0
  outer loop
    vertex 161.22406005859375 -77.56893920898438 1.2573704719543457
    vertex 164.77272033691403 -80.5958251953125 1.2573704719543457
    vertex 165.89144897460938 -77.75186920166014 1.2573704719543457
  endloop
endfacet
facet normal 0.0 0.0 1.0
  outer loop
    vertex 165.89144897460938 -77.75186920166014 1.2573704719543457
    vertex 164.77272033691403 -80.5958251953125 1.2573704719543457
    vertex 170.10260009765625 -79.75716400146483 1.2573704719543457
  endloop
endfacet
facet normal 0.0 0.0 1.0
  outer loop
    vertex 165.89144897460938 -77.75186920166014 1.2573704719543457
    vertex 170.10260009765625 -79.75716400146483 1.2573704719543457
    vertex 170.44714355468747 -76.7205581665039 1.2573704719543457
  endloop
endfacet
facet normal 0.0 0.0 1.0
  outer loop
    vertex 170.44714355468747 -76.7205581665039 1.2573704719543457
    vertex 170.10260009765625 -79.75716400146483 1.2573704719543457
    vertex 175.03382873535156 -77.56759643554688 1.2573704719543457
  endloop
endfacet
facet normal 0.0 0.0 1.0
  outer loop
    vertex 170.44714355468747 -76.7205581665039 1.2573704719543457
    vertex 175.03382873535156 -77.56759643554688 1.2573704719543457
    vertex 174.58070373535153 -74.54529571533203 1.2573704719543457
  endloop
endfacet
facet normal 0.0 0.0 1.0
  outer loop
    vertex 174.58070373535153 -74.54529571533203 1.2573704719543457
    vertex 175.03382873535156 -77.56759643554688 1.2573704719543457
    vertex 178.01039123535156 -71.37430572509764 1.2573704719543457
  endloop
endfacet
facet normal 0.0 0.0 1.0
  outer loop
    vertex 178.01039123535156 -71.37430572509764 1.2573704719543457
    vertex 175.03382873535156 -77.56759643554688 1.2573704719543457
    vertex 179.23031616210935 -74.17634582519531 1.2573704719543457
  endloop
endfacet
facet normal 0.0 0.0 1.0
  outer loop
    vertex 178.01039123535156 -71.37430572509764 1.2573704719543457
    vertex 179.23031616210935 -74.17634582519531 1.2573704719543457
    vertex 180.5025177001953 -67.42369079589844 1.2573704719543457
  endloop
endfacet
facet normal 0.0 0.0 1.0
  outer loop
    vertex 180.5025177001953 -67.42369079589844 1.2573704719543457
    vertex 179.23031616210935 -74.17634582519531 1.2573704719543457
    vertex 182.4060821533203 -69.81452178955078 1.2573704719543457
  endloop
endfacet
facet normal 0.0 0.0 1.0
  outer loop
    vertex 180.5025177001953 -67.42369079589844 1.2573704719543457
    vertex 182.4060821533203 -69.81452178955078 1.2573704719543457
    vertex 181.88720703125 -62.962688446044915 1.2573704719543457
  endloop
endfacet
facet normal 0.0 0.0 1.0
  outer loop
    vertex 181.88720703125 -62.962688446044915 1.2573704719543457
    vertex 182.4060821533203 -69.81452178955078 1.2573704719543457
    vertex 182.07014465332028 -58.295303344726555 1.2573704719543457
  endloop
endfacet
facet normal 0.0 0.0 1.0
  outer loop
    vertex 146.0989532470703 -50.05394744873046 1.2573704719543457
    vertex 146.61781311035156 -56.90578079223632 1.2573704719543457
    vertex 149.27471923828125 -45.692119598388665 1.2573704719543457
  endloop
endfacet
facet normal 0.0 0.0 1.0
  outer loop
    vertex 146.61781311035156 -56.90578079223632 1.2573704719543457
    vertex 146.0989532470703 -50.05394744873046 1.2573704719543457
    vertex 146.4348907470703 -61.57316589355468 1.2573704719543457
  endloop
endfacet
facet normal 0.0 0.0 1.0
  outer loop
    vertex 149.27471923828125 -45.692119598388665 1.2573704719543457
    vertex 146.61781311035156 -56.90578079223632 1.2573704719543457
    vertex 148.00251770019528 -52.44477462768554 1.2573704719543457
  endloop
endfacet
facet normal 0.0 0.0 1.0
  outer loop
    vertex 149.27471923828125 -45.692119598388665 1.2573704719543457
    vertex 148.00251770019528 -52.44477462768554 1.2573704719543457
    vertex 150.49464416503903 -48.49416351318359 1.2573704719543457
  endloop
endfacet
facet normal 0.0 0.0 1.0
  outer loop
    vertex 149.27471923828125 -45.692119598388665 1.2573704719543457
    vertex 150.49464416503903 -48.49416351318359 1.2573704719543457
    vertex 153.47122192382812 -42.3008689880371 1.2573704719543457
  endloop
endfacet
facet normal 0.0 0.0 1.0
  outer loop
    vertex 153.47122192382812 -42.3008689880371 1.2573704719543457
    vertex 150.49464416503903 -48.49416351318359 1.2573704719543457
    vertex 153.92433166503906 -45.32317733764648 1.2573704719543457
  endloop
endfacet
facet normal 0.0 0.0 1.0
  outer loop
    vertex 153.47122192382812 -42.3008689880371 1.2573704719543457
    vertex 153.92433166503906 -45.32317733764648 1.2573704719543457
    vertex 158.40243530273438 -40.111305236816406 1.2573704719543457
  endloop
endfacet
facet normal 0.0 0.0 1.0
  outer loop
    vertex 158.40243530273438 -40.111305236816406 1.2573704719543457
    vertex 153.92433166503906 -45.32317733764648 1.2573704719543457
    vertex 158.05789184570312 -43.14790725708007 1.2573704719543457
  endloop
endfacet
facet normal 0.0 0.0 1.0
  outer loop
    vertex 158.40243530273438 -40.111305236816406 1.2573704719543457
    vertex 158.05789184570312 -43.14790725708007 1.2573704719543457
    vertex 162.61358642578122 -42.116600036621094 1.2573704719543457
  endloop
endfacet
facet normal 0.0 0.0 1.0
  outer loop
    vertex 158.40243530273438 -40.111305236816406 1.2573704719543457
    vertex 162.61358642578122 -42.116600036621094 1.2573704719543457
    vertex 163.73231506347656 -39.272640228271484 1.2573704719543457
  endloop
endfacet
facet normal 0.0 0.0 1.0
  outer loop
    vertex 163.73231506347656 -39.272640228271484 1.2573704719543457
    vertex 162.61358642578122 -42.116600036621094 1.2573704719543457
    vertex 167.2809600830078 -42.299530029296875 1.2573704719543457
  endloop
endfacet
facet normal 0.0 0.0 1.0
  outer loop
    vertex 163.73231506347656 -39.272640228271484 1.2573704719543457
    vertex 167.2809600830078 -42.299530029296875 1.2573704719543457
    vertex 169.09765624999997 -39.8420295715332 1.2573704719543457
  endloop
endfacet
facet normal 0.0 0.0 1.0
  outer loop
    vertex 169.09765624999997 -39.8420295715332 1.2573704719543457
    vertex 167.2809600830078 -42.299530029296875 1.2573704719543457
    vertex 171.74197387695312 -43.68424606323242 1.2573704719543457
  endloop
endfacet
facet normal 0.0 0.0 1.0
  outer loop
    vertex 169.09765624999997 -39.8420295715332 1.2573704719543457
    vertex 171.74197387695312 -43.68424606323242 1.2573704719543457
    vertex 174.1327972412109 -41.78066635131836 1.2573704719543457
  endloop
endfacet
facet normal 0.0 0.0 1.0
  outer loop
    vertex 174.1327972412109 -41.78066635131836 1.2573704719543457
    vertex 171.74197387695312 -43.68424606323242 1.2573704719543457
    vertex 175.6925811767578 -46.17636108398437 1.2573704719543457
  endloop
endfacet
facet normal 0.0 0.0 1.0
  outer loop
    vertex 174.1327972412109 -41.78066635131836 1.2573704719543457
    vertex 175.6925811767578 -46.17636108398437 1.2573704719543457
    vertex 178.49462890625 -44.95643997192383 1.2573704719543457
  endloop
endfacet
facet normal 0.0 0.0 1.0
  outer loop
    vertex 178.49462890625 -44.95643997192383 1.2573704719543457
    vertex 175.6925811767578 -46.17636108398437 1.2573704719543457
    vertex 178.86358642578125 -49.606056213378906 1.2573704719543457
  endloop
endfacet
facet normal 0.0 0.0 1.0
  outer loop
    vertex 178.49462890625 -44.95643997192383 1.2573704719543457
    vertex 178.86358642578125 -49.606056213378906 1.2573704719543457
    vertex 181.88587951660153 -49.15292739868164 1.2573704719543457
  endloop
endfacet
facet normal 0.0 0.0 1.0
  outer loop
    vertex 181.88587951660153 -49.15292739868164 1.2573704719543457
    vertex 178.86358642578125 -49.606056213378906 1.2573704719543457
    vertex 181.03883361816406 -53.7396011352539 1.2573704719543457
  endloop
endfacet
facet normal 0.0 0.0 1.0
  outer loop
    vertex 181.88587951660153 -49.15292739868164 1.2573704719543457
    vertex 181.03883361816406 -53.7396011352539 1.2573704719543457
    vertex 182.07014465332028 -58.295303344726555 1.2573704719543457
  endloop
endfacet
facet normal 0.0 0.0 1.0
  outer loop
    vertex 181.88587951660153 -49.15292739868164 1.2573704719543457
    vertex 182.07014465332028 -58.295303344726555 1.2573704719543457
    vertex 184.07545471191403 -54.08414077758789 1.2573704719543457
  endloop
endfacet
facet normal 0.0 0.0 1.0
  outer loop
    vertex 184.07545471191403 -54.08414077758789 1.2573704719543457
    vertex 182.07014465332028 -58.295303344726555 1.2573704719543457
    vertex 182.4060821533203 -69.81452178955078 1.2573704719543457
  endloop
endfacet
facet normal 0.0 0.0 1.0
  outer loop
    vertex 184.07545471191403 -54.08414077758789 1.2573704719543457
    vertex 182.4060821533203 -69.81452178955078 1.2573704719543457
    vertex 184.34472656249997 -64.77937316894531 1.2573704719543457
  endloop
endfacet
facet normal 0.0 0.0 1.0
  outer loop
    vertex 184.07545471191403 -54.08414077758789 1.2573704719543457
    vertex 184.34472656249997 -64.77937316894531 1.2573704719543457
    vertex 184.91410827636716 -59.41403198242187 1.2573704719543457
  endloop
endfacet
facet normal -0.5335329648717448 -0.8457792710838719 0.0
  outer loop
    vertex 175.6925811767578 -46.17636108398437 1.2573704719543457
    vertex 171.74197387695312 -43.68424606323242 -3.442629337310791
    vertex 175.6925811767578 -46.17636108398437 -3.442629337310791
  endloop
endfacet
facet normal -0.5335329648717448 -0.8457792710838719 0.0
  outer loop
    vertex 171.74197387695312 -43.68424606323242 -3.442629337310791
    vertex 175.6925811767578 -46.17636108398437 1.2573704719543457
    vertex 171.74197387695312 -43.68424606323242 1.2573704719543457
  endloop
endfacet
facet normal -0.7342555234738681 -0.6788732033657802 0.0
  outer loop
    vertex 175.6925811767578 -46.17636108398437 1.2573704719543457
    vertex 178.86358642578125 -49.606056213378906 -3.442629337310791
    vertex 178.86358642578125 -49.606056213378906 1.2573704719543457
  endloop
endfacet
facet normal -0.7342555234738681 -0.6788732033657802 0.0
  outer loop
    vertex 178.86358642578125 -49.606056213378906 -3.442629337310791
    vertex 175.6925811767578 -46.17636108398437 1.2573704719543457
    vertex 175.6925811767578 -46.17636108398437 -3.442629337310791
  endloop
endfacet
facet normal -0.3593090895316225 -0.9332186122125709 4.603993382538203e-18
  outer loop
    vertex 174.1327972412109 -41.78066635131836 34.157371520996094
    vertex 169.09765624999997 -39.8420295715332 1.2573704719543457
    vertex 174.1327972412109 -41.78066635131836 1.2573704719543457
  endloop
endfacet
facet normal -0.3593090895316224 -0.9332186122125709 4.6039933825382025e-18
  outer loop
    vertex 169.09765624999997 -39.8420295715332 34.157371520996094
    vertex 169.09765624999997 -39.8420295715332 1.2573704719543457
    vertex 174.1327972412109 -41.78066635131836 34.157371520996094
  endloop
endfacet
facet normal 0.628535360348243 -0.7777810108198223 0.0
  outer loop
    vertex 153.47122192382812 -42.3008689880371 34.157371520996094
    vertex 149.27471923828125 -45.692119598388665 1.2573704719543457
    vertex 153.47122192382812 -42.3008689880371 1.2573704719543457
  endloop
endfacet
facet normal 0.6285353603482431 -0.7777810108198222 1.1048082065074078e-17
  outer loop
    vertex 149.27471923828125 -45.692119598388665 34.15737152099617
    vertex 149.27471923828125 -45.692119598388665 1.2573704719543457
    vertex 153.47122192382812 -42.3008689880371 34.157371520996094
  endloop
endfacet
facet normal -0.5885998237421257 -0.808424546566183 -1.0629338952972609e-17
  outer loop
    vertex 178.49462890625 -44.95643997192383 34.157371520996094
    vertex 174.1327972412109 -41.78066635131836 1.2573704719543457
    vertex 178.49462890625 -44.95643997192383 1.2573704719543457
  endloop
endfacet
facet normal -0.5885998237421257 -0.808424546566183 0.0
  outer loop
    vertex 174.1327972412109 -41.78066635131836 34.157371520996094
    vertex 174.1327972412109 -41.78066635131836 1.2573704719543457
    vertex 178.49462890625 -44.95643997192383 34.157371520996094
  endloop
endfacet
facet normal 0.8084249744733881 -0.5885992360237158 -1.0629363171278833e-17
  outer loop
    vertex 149.27471923828125 -45.692119598388665 1.2573704719543457
    vertex 146.0989532470703 -50.05394744873046 34.157371520996094
    vertex 146.0989532470703 -50.05394744873046 1.2573704719543457
  endloop
endfacet
facet normal 0.8084249744733881 -0.5885992360237156 -1.0629363171278778e-17
  outer loop
    vertex 149.27471923828125 -45.692119598388665 34.15737152099617
    vertex 146.0989532470703 -50.05394744873046 34.157371520996094
    vertex 149.27471923828125 -45.692119598388665 1.2573704719543457
  endloop
endfacet
facet normal 0.9965801269839542 0.08263201861654952 2.618195129626456e-18
  outer loop
    vertex 186.9315490722656 -55.01430892944335 -3.442629337310791
    vertex 187.43214416503906 -61.05171585083007 34.157371520996094
    vertex 187.43214416503906 -61.05171585083007 -3.442629337310791
  endloop
endfacet
facet normal 0.9965801269839542 0.08263201861654951 -1.3090975648132279e-18
  outer loop
    vertex 186.9315490722656 -55.01430892944335 34.157371520996094
    vertex 187.43214416503906 -61.05171585083007 34.157371520996094
    vertex 186.9315490722656 -55.01430892944335 -3.442629337310791
  endloop
endfacet
facet normal 0.33775193192098757 -0.9412351632209884 -5.5442963420268436e-18
  outer loop
    vertex 174.87455749511716 -80.56712341308594 34.157371520996094
    vertex 169.17243957519528 -82.61326599121092 -3.442629337310791
    vertex 174.87455749511716 -80.56712341308594 -3.442629337310791
  endloop
endfacet
facet normal 0.33775193192098757 -0.9412351632209884 -5.5442963420268436e-18
  outer loop
    vertex 169.17243957519528 -82.61326599121092 34.157371520996094
    vertex 169.17243957519528 -82.61326599121092 -3.442629337310791
    vertex 174.87455749511716 -80.56712341308594 34.157371520996094
  endloop
endfacet
facet normal -0.15543835919869944 0.9878455934454616 0.0
  outer loop
    vertex 164.77272033691403 -80.5958251953125 34.157371520996094
    vertex 170.10260009765625 -79.75716400146483 1.2573704719543457
    vertex 164.77272033691403 -80.5958251953125 1.2573704719543457
  endloop
endfacet
facet normal -0.15543835919869947 0.9878455934454616 -2.1746973168651306e-18
  outer loop
    vertex 170.10260009765625 -79.75716400146483 34.157371520996094
    vertex 170.10260009765625 -79.75716400146483 1.2573704719543457
    vertex 164.77272033691403 -80.5958251953125 34.157371520996094
  endloop
endfacet
facet normal 0.5885998237421266 0.8084245465661823 0.0
  outer loop
    vertex 150.01040649414062 -74.91202545166014 34.157371520996094
    vertex 154.3722381591797 -78.08779907226562 1.2573704719543457
    vertex 150.01040649414062 -74.91202545166014 1.2573704719543457
  endloop
endfacet
facet normal 0.5885998237421265 0.8084245465661826 -1.0629338952972604e-17
  outer loop
    vertex 154.3722381591797 -78.08779907226562 34.157371520996094
    vertex 154.3722381591797 -78.08779907226562 1.2573704719543457
    vertex 150.01040649414062 -74.91202545166014 34.157371520996094
  endloop
endfacet
facet normal 0.5698511194347043 -0.8217479550805188 1.2700909368190175e-17
  outer loop
    vertex 179.8528137207031 -77.1148910522461 34.157371520996094
    vertex 174.87455749511716 -80.56712341308594 -3.442629337310791
    vertex 179.8528137207031 -77.1148910522461 -3.442629337310791
  endloop
endfacet
facet normal 0.5698511194347042 -0.8217479550805188 0.0
  outer loop
    vertex 174.87455749511716 -80.56712341308594 34.157371520996094
    vertex 174.87455749511716 -80.56712341308594 -3.442629337310791
    vertex 179.8528137207031 -77.1148910522461 34.157371520996094
  endloop
endfacet
facet normal 0.9412352350528842 0.3377517317423285 -5.544289346925383e-18
  outer loop
    vertex 184.88540649414062 -49.31218719482421 -3.442629337310791
    vertex 186.9315490722656 -55.01430892944335 34.157371520996094
    vertex 186.9315490722656 -55.01430892944335 -3.442629337310791
  endloop
endfacet
facet normal 0.9412352350528842 0.3377517317423285 0.0
  outer loop
    vertex 184.88540649414062 -49.31218719482421 34.157371520996094
    vertex 186.9315490722656 -55.01430892944335 34.157371520996094
    vertex 184.88540649414062 -49.31218719482421 -3.442629337310791
  endloop
endfacet
facet normal 0.7631186655656386 -0.6462583866112062 -6.838358462670622e-18
  outer loop
    vertex 183.7679290771484 -72.49182128906249 -3.442629337310791
    vertex 179.8528137207031 -77.1148910522461 34.157371520996094
    vertex 179.8528137207031 -77.1148910522461 -3.442629337310791
  endloop
endfacet
facet normal 0.7631186655656386 -0.646258386611206 6.838358462670622e-18
  outer loop
    vertex 183.7679290771484 -72.49182128906249 34.157371520996094
    vertex 179.8528137207031 -77.1148910522461 34.157371520996094
    vertex 183.7679290771484 -72.49182128906249 -3.442629337310791
  endloop
endfacet
facet normal 0.9043799497373635 -0.4267281412246491 -1.1540445422218597e-17
  outer loop
    vertex 186.3531036376953 -67.01296997070312 -3.442629337310791
    vertex 183.7679290771484 -72.49182128906249 34.157371520996094
    vertex 183.7679290771484 -72.49182128906249 -3.442629337310791
  endloop
endfacet
facet normal 0.9043799497373635 -0.4267281412246489 5.770222711109297e-18
  outer loop
    vertex 186.3531036376953 -67.01296997070312 34.157371520996094
    vertex 183.7679290771484 -72.49182128906249 34.157371520996094
    vertex 186.3531036376953 -67.01296997070312 -3.442629337310791
  endloop
endfacet
facet normal 0.35931032101422905 0.9332181380645427 -2.744417985456928e-18
  outer loop
    vertex 154.3722381591797 -78.08779907226562 34.157371520996094
    vertex 159.40737915039062 -80.02644348144531 1.2573704719543457
    vertex 154.3722381591797 -78.08779907226562 1.2573704719543457
  endloop
endfacet
facet normal 0.35931032101422905 0.9332181380645427 -2.744417985456928e-18
  outer loop
    vertex 159.40737915039062 -80.02644348144531 1.2573704719543457
    vertex 154.3722381591797 -78.08779907226562 34.157371520996094
    vertex 159.40737915039062 -80.02644348144531 34.15737152099617
  endloop
endfacet
facet normal 0.8217481358546301 0.569850858751165 6.350475545860379e-18
  outer loop
    vertex 181.43318176269528 -44.33393859863281 -3.442629337310791
    vertex 184.88540649414062 -49.31218719482421 34.157371520996094
    vertex 184.88540649414062 -49.31218719482421 -3.442629337310791
  endloop
endfacet
facet normal 0.8217481358546304 0.569850858751165 6.350475545860354e-18
  outer loop
    vertex 181.43318176269528 -44.33393859863281 34.15737152099617
    vertex 184.88540649414062 -49.31218719482421 34.157371520996094
    vertex 181.43318176269528 -44.33393859863281 -3.442629337310791
  endloop
endfacet
facet normal -0.4058150350049089 0.9139552272206579 -4.700988767492113e-18
  outer loop
    vertex 170.10260009765625 -79.75716400146483 34.157371520996094
    vertex 175.03382873535156 -77.56759643554688 1.2573704719543457
    vertex 170.10260009765625 -79.75716400146483 1.2573704719543457
  endloop
endfacet
facet normal -0.40581503500490884 0.9139552272206581 0.0
  outer loop
    vertex 175.03382873535156 -77.56759643554688 34.157371520996094
    vertex 175.03382873535156 -77.56759643554688 1.2573704719543457
    vertex 170.10260009765625 -79.75716400146483 34.157371520996094
  endloop
endfacet
facet normal -0.42672711118560636 -0.904380435756539 0.0
  outer loop
    vertex 157.1737823486328 -82.03481292724608 34.157371520996094
    vertex 151.69493103027344 -79.44964599609375 -3.442629337310791
    vertex 157.1737823486328 -82.03481292724608 -3.442629337310791
  endloop
endfacet
facet normal -0.4267271111856061 -0.904380435756539 -5.770225812061376e-18
  outer loop
    vertex 151.69493103027344 -79.44964599609375 34.157371520996094
    vertex 151.69493103027344 -79.44964599609375 -3.442629337310791
    vertex 157.1737823486328 -82.03481292724608 34.157371520996094
  endloop
endfacet
facet normal 0.6462573988320062 0.7631195020800408 -2.051503016474579e-17
  outer loop
    vertex 176.81010437011716 -40.41882705688476 34.157371520996094
    vertex 181.43318176269528 -44.33393859863281 -3.442629337310791
    vertex 176.81010437011716 -40.41882705688476 -3.442629337310791
  endloop
endfacet
facet normal 0.6462573988320063 0.7631195020800406 -6.838343388248568e-18
  outer loop
    vertex 181.43318176269528 -44.33393859863281 34.15737152099617
    vertex 181.43318176269528 -44.33393859863281 -3.442629337310791
    vertex 176.81010437011716 -40.41882705688476 34.157371520996094
  endloop
endfacet
facet normal 0.1781167613673476 0.9840093593660618 5.303301351186004e-18
  outer loop
    vertex 165.36999511718747 -36.75460052490234 34.157371520996094
    vertex 171.33123779296875 -37.83365249633789 -3.442629337310791
    vertex 165.36999511718747 -36.75460052490234 -3.442629337310791
  endloop
endfacet
facet normal 0.1781167613673477 0.9840093593660618 2.651650675593003e-18
  outer loop
    vertex 171.33123779296875 -37.83365249633789 34.157371520996094
    vertex 171.33123779296875 -37.83365249633789 -3.442629337310791
    vertex 165.36999511718747 -36.75460052490234 34.157371520996094
  endloop
endfacet
facet normal 0.08263316567354213 -0.9965800318743944 -1.309094131304889e-18
  outer loop
    vertex 169.17243957519528 -82.61326599121092 34.157371520996094
    vertex 163.13502502441403 -83.11386871337889 -3.442629337310791
    vertex 169.17243957519528 -82.61326599121092 -3.442629337310791
  endloop
endfacet
facet normal 0.08263316567354213 -0.9965800318743944 -1.309094131304889e-18
  outer loop
    vertex 163.13502502441403 -83.11386871337889 34.157371520996094
    vertex 163.13502502441403 -83.11386871337889 -3.442629337310791
    vertex 169.17243957519528 -82.61326599121092 34.157371520996094
  endloop
endfacet
facet normal -0.8217469563974571 -0.5698525595726635 0.0
  outer loop
    vertex 143.61961364746094 -70.55628204345703 34.157371520996094
    vertex 147.0718536376953 -75.53453063964844 -3.442629337310791
    vertex 147.0718536376953 -75.53453063964844 34.15737152099617
  endloop
endfacet
facet normal -0.8217469563974569 -0.5698525595726635 0.0
  outer loop
    vertex 143.61961364746094 -70.55628204345703 -3.442629337310791
    vertex 147.0718536376953 -75.53453063964844 -3.442629337310791
    vertex 143.61961364746094 -70.55628204345703 34.157371520996094
  endloop
endfacet
facet normal 0.4267271691876162 0.9043804083885959 5.770193497026667e-18
  outer loop
    vertex 171.33123779296875 -37.83365249633789 34.157371520996094
    vertex 176.81010437011716 -40.41882705688476 -3.442629337310791
    vertex 171.33123779296875 -37.83365249633789 -3.442629337310791
  endloop
endfacet
facet normal 0.4267271691876162 0.9043804083885959 0.0
  outer loop
    vertex 176.81010437011716 -40.41882705688476 34.157371520996094
    vertex 176.81010437011716 -40.41882705688476 -3.442629337310791
    vertex 171.33123779296875 -37.83365249633789 34.157371520996094
  endloop
endfacet
facet normal -0.5698527240970421 0.8217468423055732 0.0
  outer loop
    vertex 148.6522216796875 -42.753578186035156 34.157371520996094
    vertex 153.63046264648435 -39.30134201049805 -3.442629337310791
    vertex 148.6522216796875 -42.753578186035156 -3.442629337310791
  endloop
endfacet
facet normal -0.5698527240970421 0.8217468423055732 6.3504850141086816e-18
  outer loop
    vertex 153.63046264648435 -39.30134201049805 34.157371520996094
    vertex 153.63046264648435 -39.30134201049805 -3.442629337310791
    vertex 148.6522216796875 -42.753578186035156 34.157371520996094
  endloop
endfacet
facet normal -0.7631189285523342 0.6462580760695664 6.8383495340645236e-18
  outer loop
    vertex 148.6522216796875 -42.753578186035156 34.157371520996094
    vertex 144.7371063232422 -47.376651763916016 -3.442629337310791
    vertex 144.7371063232422 -47.376651763916016 34.157371520996094
  endloop
endfacet
facet normal -0.7631189285523341 0.6462580760695665 -6.838349534064522e-18
  outer loop
    vertex 148.6522216796875 -42.753578186035156 -3.442629337310791
    vertex 144.7371063232422 -47.376651763916016 -3.442629337310791
    vertex 148.6522216796875 -42.753578186035156 34.157371520996094
  endloop
endfacet
facet normal -0.7777798935687932 -0.6285367428878893 0.0
  outer loop
    vertex 178.49462890625 -44.95643997192383 34.157371520996094
    vertex 181.88587951660153 -49.15292739868164 1.2573704719543457
    vertex 181.88587951660153 -49.15292739868164 34.157371520996094
  endloop
endfacet
facet normal -0.7777798935687933 -0.6285367428878893 -1.1048146538533272e-17
  outer loop
    vertex 178.49462890625 -44.95643997192383 1.2573704719543457
    vertex 181.88587951660153 -49.15292739868164 1.2573704719543457
    vertex 178.49462890625 -44.95643997192383 34.157371520996094
  endloop
endfacet
facet normal -0.10553101108396183 -0.9944160123909896 -2.1603195472156075e-18
  outer loop
    vertex 169.09765624999997 -39.8420295715332 34.157371520996094
    vertex 163.73231506347656 -39.272640228271484 1.2573704719543457
    vertex 169.09765624999997 -39.8420295715332 1.2573704719543457
  endloop
endfacet
facet normal -0.10553101108396189 -0.9944160123909896 5.415101555151505e-18
  outer loop
    vertex 169.09765624999997 -39.8420295715332 34.157371520996094
    vertex 163.73231506347656 -39.272640228271484 34.157371520996094
    vertex 163.73231506347656 -39.272640228271484 1.2573704719543457
  endloop
endfacet
facet normal -0.10553101108396189 -0.9944160123909896 5.415101555151505e-18
  outer loop
    vertex 163.73231506347656 -39.272640228271484 34.157371520996094
    vertex 169.09765624999997 -39.8420295715332 34.157371520996094
    vertex 165.24088285077232 -39.43273487869775 34.157371520996094
  endloop
endfacet
facet normal 0.7777798935687927 0.6285367428878899 -2.209629307706659e-17
  outer loop
    vertex 146.61915588378906 -70.71553802490234 1.2573704719543457
    vertex 150.01040649414062 -74.91202545166014 34.157371520996094
    vertex 150.01040649414062 -74.91202545166014 1.2573704719543457
  endloop
endfacet
facet normal 0.7777798935687927 0.6285367428878899 -1.1048146538533298e-17
  outer loop
    vertex 146.61915588378906 -70.71553802490234 34.157371520996094
    vertex 150.01040649414062 -74.91202545166014 34.157371520996094
    vertex 146.61915588378906 -70.71553802490234 1.2573704719543457
  endloop
endfacet
facet normal 0.10552961279427961 0.9944161607815359 2.1603198695867225e-18
  outer loop
    vertex 164.77272033691403 -80.5958251953125 34.157371520996094
    vertex 164.77272033691403 -80.5958251953125 1.2573704719543457
    vertex 159.40737915039062 -80.02644348144531 1.2573704719543457
  endloop
endfacet
facet normal 0.10552961279428004 0.9944161607815359 4.512592269428466e-17
  outer loop
    vertex 159.40737915039062 -80.02644348144531 1.2573704719543457
    vertex 163.26413744857655 -80.43573108748022 34.1573715209961
    vertex 164.77272033691403 -80.5958251953125 34.157371520996094
  endloop
endfacet
facet normal 0.10552961279428004 0.9944161607815359 4.512592269428466e-17
  outer loop
    vertex 163.26413744857655 -80.43573108748022 34.1573715209961
    vertex 159.40737915039062 -80.02644348144531 1.2573704719543457
    vertex 159.40737915039062 -80.02644348144531 34.15737152099617
  endloop
endfacet
facet normal 0.9139542370125288 0.4058172650921181 0.0
  outer loop
    vertex 144.42958068847656 -65.78432464599608 1.2573704719543457
    vertex 146.61915588378906 -70.71553802490234 34.157371520996094
    vertex 146.61915588378906 -70.71553802490234 1.2573704719543457
  endloop
endfacet
facet normal 0.9139542370125288 0.405817265092118 -4.701012767102443e-18
  outer loop
    vertex 144.42958068847656 -65.78432464599608 34.157371520996094
    vertex 146.61915588378906 -70.71553802490234 34.157371520996094
    vertex 144.42958068847656 -65.78432464599608 1.2573704719543457
  endloop
endfacet
facet normal -0.6285367428878912 0.7777798935687918 0.0
  outer loop
    vertex 175.03382873535156 -77.56759643554688 34.157371520996094
    vertex 179.23031616210935 -74.17634582519531 1.2573704719543457
    vertex 175.03382873535156 -77.56759643554688 1.2573704719543457
  endloop
endfacet
facet normal -0.6285367428878912 0.7777798935687918 -1.1048146538533235e-17
  outer loop
    vertex 179.23031616210935 -74.17634582519531 34.15737152099617
    vertex 179.23031616210935 -74.17634582519531 1.2573704719543457
    vertex 175.03382873535156 -77.56759643554688 34.157371520996094
  endloop
endfacet
facet normal -0.9139542370125286 -0.4058172650921185 -4.701012767102453e-18
  outer loop
    vertex 181.88587951660153 -49.15292739868164 34.157371520996094
    vertex 184.07545471191403 -54.08414077758789 1.2573704719543457
    vertex 184.07545471191403 -54.08414077758789 34.157371520996094
  endloop
endfacet
facet normal -0.9139542370125286 -0.4058172650921185 0.0
  outer loop
    vertex 181.88587951660153 -49.15292739868164 1.2573704719543457
    vertex 184.07545471191403 -54.08414077758789 1.2573704719543457
    vertex 181.88587951660153 -49.15292739868164 34.157371520996094
  endloop
endfacet
facet normal -0.8084247295269988 0.5885995724507441 0.0
  outer loop
    vertex 182.4060821533203 -69.81452178955078 34.157371520996094
    vertex 179.23031616210935 -74.17634582519531 1.2573704719543457
    vertex 179.23031616210935 -74.17634582519531 34.15737152099617
  endloop
endfacet
facet normal -0.8084247295269987 0.5885995724507441 1.0629378542799442e-17
  outer loop
    vertex 182.4060821533203 -69.81452178955078 1.2573704719543457
    vertex 179.23031616210935 -74.17634582519531 1.2573704719543457
    vertex 182.4060821533203 -69.81452178955078 34.157371520996094
  endloop
endfacet
facet normal -0.9878458618151815 -0.15543665363942052 -2.1746885688607538e-18
  outer loop
    vertex 184.07545471191403 -54.08414077758789 34.157371520996094
    vertex 184.91410827636716 -59.41403198242187 1.2573704719543457
    vertex 184.91410827636716 -59.41403198242187 34.157371520996094
  endloop
endfacet
facet normal -0.9878458618151815 -0.15543665363942052 0.0
  outer loop
    vertex 184.07545471191403 -54.08414077758789 1.2573704719543457
    vertex 184.91410827636716 -59.41403198242187 1.2573704719543457
    vertex 184.07545471191403 -54.08414077758789 34.157371520996094
  endloop
endfacet
facet normal 0.9878454104852302 0.15543952194749944 0.0
  outer loop
    vertex 143.59091186523435 -60.454437255859375 1.2573704719543457
    vertex 144.42958068847656 -65.78432464599608 34.157371520996094
    vertex 144.42958068847656 -65.78432464599608 1.2573704719543457
  endloop
endfacet
facet normal 0.9878454104852302 0.15543952194749944 2.174690688210531e-18
  outer loop
    vertex 143.59091186523435 -60.454437255859375 34.157371520996094
    vertex 144.42958068847656 -65.78432464599608 34.157371520996094
    vertex 143.59091186523435 -60.454437255859375 1.2573704719543457
  endloop
endfacet
facet normal -0.9332183206222344 0.3593098468662063 0.0
  outer loop
    vertex 184.34472656249997 -64.77937316894531 34.157371520996094
    vertex 182.4060821533203 -69.81452178955078 1.2573704719543457
    vertex 182.4060821533203 -69.81452178955078 34.157371520996094
  endloop
endfacet
facet normal -0.9332183206222344 0.35930984686620626 9.207955983624373e-18
  outer loop
    vertex 184.34472656249997 -64.77937316894531 1.2573704719543457
    vertex 182.4060821533203 -69.81452178955078 1.2573704719543457
    vertex 184.34472656249997 -64.77937316894531 34.157371520996094
  endloop
endfacet
facet normal 0.15543904913626969 -0.9878454848829409 4.349394155739354e-18
  outer loop
    vertex 163.73231506347656 -39.272640228271484 34.157371520996094
    vertex 158.40243530273438 -40.111305236816406 1.2573704719543457
    vertex 163.73231506347656 -39.272640228271484 1.2573704719543457
  endloop
endfacet
facet normal 0.15543904913626974 -0.9878454848829409 -4.349394155739356e-18
  outer loop
    vertex 158.40243530273438 -40.111305236816406 34.157371520996094
    vertex 158.40243530273438 -40.111305236816406 1.2573704719543457
    vertex 163.73231506347656 -39.272640228271484 34.157371520996094
  endloop
endfacet
facet normal 0.4058154933461625 -0.9139550237075186 -9.40203362708972e-18
  outer loop
    vertex 158.40243530273438 -40.111305236816406 34.157371520996094
    vertex 153.47122192382812 -42.3008689880371 1.2573704719543457
    vertex 158.40243530273438 -40.111305236816406 1.2573704719543457
  endloop
endfacet
facet normal 0.40581549334616235 -0.9139550237075186 -4.701016813544859e-18
  outer loop
    vertex 153.47122192382812 -42.3008689880371 34.157371520996094
    vertex 153.47122192382812 -42.3008689880371 1.2573704719543457
    vertex 158.40243530273438 -40.111305236816406 34.157371520996094
  endloop
endfacet
facet normal 0.9332192689148294 -0.3593073839014049 4.603982670158242e-18
  outer loop
    vertex 146.0989532470703 -50.05394744873046 1.2573704719543457
    vertex 144.1603240966797 -55.08909606933593 34.157371520996094
    vertex 144.1603240966797 -55.08909606933593 1.2573704719543457
  endloop
endfacet
facet normal 0.9332192689148294 -0.35930738390140493 -4.603982670158242e-18
  outer loop
    vertex 146.0989532470703 -50.05394744873046 34.157371520996094
    vertex 144.1603240966797 -55.08909606933593 34.157371520996094
    vertex 146.0989532470703 -50.05394744873046 1.2573704719543457
  endloop
endfacet
facet normal 0.9944155672078188 -0.10553520594925661 2.1603185800772037e-18
  outer loop
    vertex 144.1603240966797 -55.08909606933593 1.2573704719543457
    vertex 143.59091186523435 -60.454437255859375 34.157371520996094
    vertex 143.59091186523435 -60.454437255859375 1.2573704719543457
  endloop
endfacet
facet normal 0.9944155672078188 -0.10553520594925668 -2.160318580077204e-18
  outer loop
    vertex 144.1603240966797 -55.08909606933593 34.157371520996094
    vertex 143.59091186523435 -60.454437255859375 34.157371520996094
    vertex 144.1603240966797 -55.08909606933593 1.2573704719543457
  endloop
endfacet
facet normal -0.9944161607815359 0.10552961279427936 2.1603198695867125e-18
  outer loop
    vertex 184.91410827636716 -59.41403198242187 34.157371520996094
    vertex 184.34472656249997 -64.77937316894531 1.2573704719543457
    vertex 184.34472656249997 -64.77937316894531 34.157371520996094
  endloop
endfacet
facet normal -0.9944161607815359 0.10552961279427935 2.160319869586712e-18
  outer loop
    vertex 184.91410827636716 -59.41403198242187 1.2573704719543457
    vertex 184.34472656249997 -64.77937316894531 1.2573704719543457
    vertex 184.91410827636716 -59.41403198242187 34.157371520996094
  endloop
endfacet
facet normal -0.941236107595984 -0.33774930015850707 -5.5442870683723904e-18
  outer loop
    vertex 141.573486328125 -64.85415649414062 34.157371520996094
    vertex 143.61961364746094 -70.55628204345703 -3.442629337310791
    vertex 143.61961364746094 -70.55628204345703 34.157371520996094
  endloop
endfacet
facet normal -0.941236107595984 -0.33774930015850707 0.0
  outer loop
    vertex 141.573486328125 -64.85415649414062 -3.442629337310791
    vertex 143.61961364746094 -70.55628204345703 -3.442629337310791
    vertex 141.573486328125 -64.85415649414062 34.157371520996094
  endloop
endfacet
facet normal -0.9965801269839546 -0.08263201861654582 0.0
  outer loop
    vertex 141.07289123535156 -58.816749572753906 34.157371520996094
    vertex 141.573486328125 -64.85415649414062 -3.442629337310791
    vertex 141.573486328125 -64.85415649414062 34.157371520996094
  endloop
endfacet
facet normal -0.9965801269839546 -0.0826320186165458 -1.3090975648132285e-18
  outer loop
    vertex 141.07289123535156 -58.816749572753906 -3.442629337310791
    vertex 141.573486328125 -64.85415649414062 -3.442629337310791
    vertex 141.07289123535156 -58.816749572753906 34.157371520996094
  endloop
endfacet
facet normal -0.1781173710739402 -0.9840092490021161 0.0
  outer loop
    vertex 163.13502502441403 -83.11386871337889 34.157371520996094
    vertex 157.1737823486328 -82.03481292724608 -3.442629337310791
    vertex 163.13502502441403 -83.11386871337889 -3.442629337310791
  endloop
endfacet
facet normal -0.17811737107394024 -0.9840092490021161 0.0
  outer loop
    vertex 157.1737823486328 -82.03481292724608 34.157371520996094
    vertex 157.1737823486328 -82.03481292724608 -3.442629337310791
    vertex 163.13502502441403 -83.11386871337889 34.157371520996094
  endloop
endfacet
facet normal -0.9840097304090667 0.1781147115211881 -5.3032897762576375e-18
  outer loop
    vertex 142.1519317626953 -52.85549926757812 34.157371520996094
    vertex 141.07289123535156 -58.816749572753906 -3.442629337310791
    vertex 141.07289123535156 -58.816749572753906 34.157371520996094
  endloop
endfacet
facet normal -0.9840097304090667 0.17811471152118802 5.303289776257636e-18
  outer loop
    vertex 142.1519317626953 -52.85549926757812 -3.442629337310791
    vertex 141.07289123535156 -58.816749572753906 -3.442629337310791
    vertex 142.1519317626953 -52.85549926757812 34.157371520996094
  endloop
endfacet
facet normal 0.9840097503856536 -0.17811460115881425 0.0
  outer loop
    vertex 187.43214416503906 -61.05171585083007 -3.442629337310791
    vertex 186.3531036376953 -67.01296997070312 34.157371520996094
    vertex 186.3531036376953 -67.01296997070312 -3.442629337310791
  endloop
endfacet
facet normal 0.9840097503856539 -0.17811460115881422 2.65164154830557e-18
  outer loop
    vertex 187.43214416503906 -61.05171585083007 34.157371520996094
    vertex 186.3531036376953 -67.01296997070312 34.157371520996094
    vertex 187.43214416503906 -61.05171585083007 -3.442629337310791
  endloop
endfacet
facet normal -0.6462577655281194 -0.7631191915386496 0.0
  outer loop
    vertex 151.69493103027344 -79.44964599609375 34.157371520996094
    vertex 147.0718536376953 -75.53453063964844 -3.442629337310791
    vertex 151.69493103027344 -79.44964599609375 -3.442629337310791
  endloop
endfacet
facet normal -0.6462577655281195 -0.7631191915386495 -6.838340605475145e-18
  outer loop
    vertex 147.0718536376953 -75.53453063964844 34.15737152099617
    vertex 147.0718536376953 -75.53453063964844 -3.442629337310791
    vertex 151.69493103027344 -79.44964599609375 34.157371520996094
  endloop
endfacet
facet normal -0.9043798350740672 0.42672838423451875 -1.7310690043991158e-17
  outer loop
    vertex 144.7371063232422 -47.376651763916016 34.157371520996094
    vertex 142.1519317626953 -52.85549926757812 -3.442629337310791
    vertex 142.1519317626953 -52.85549926757812 34.157371520996094
  endloop
endfacet
facet normal -0.9043798350740672 0.4267283842345187 1.154046002932744e-17
  outer loop
    vertex 144.7371063232422 -47.376651763916016 -3.442629337310791
    vertex 142.1519317626953 -52.85549926757812 -3.442629337310791
    vertex 144.7371063232422 -47.376651763916016 34.157371520996094
  endloop
endfacet
facet normal -0.0826333730927217 0.9965800146758509 0.0
  outer loop
    vertex 159.3325958251953 -37.255203247070305 34.157371520996094
    vertex 165.36999511718747 -36.75460052490234 -3.442629337310791
    vertex 159.3325958251953 -37.255203247070305 -3.442629337310791
  endloop
endfacet
facet normal -0.08263337309272166 0.9965800146758509 0.0
  outer loop
    vertex 165.36999511718747 -36.75460052490234 34.157371520996094
    vertex 165.36999511718747 -36.75460052490234 -3.442629337310791
    vertex 159.3325958251953 -37.255203247070305 34.157371520996094
  endloop
endfacet
facet normal -0.33775057335736935 0.94123565072556 0.0
  outer loop
    vertex 153.63046264648435 -39.30134201049805 34.157371520996094
    vertex 159.3325958251953 -37.255203247070305 -3.442629337310791
    vertex 153.63046264648435 -39.30134201049805 -3.442629337310791
  endloop
endfacet
facet normal -0.33775057335736947 0.94123565072556 -5.544269540829275e-18
  outer loop
    vertex 159.3325958251953 -37.255203247070305 34.157371520996094
    vertex 159.3325958251953 -37.255203247070305 -3.442629337310791
    vertex 153.63046264648435 -39.30134201049805 34.157371520996094
  endloop
endfacet
facet normal 0.9992328922140687 -0.03916155152068505 7.711345827597351e-16
  outer loop
    vertex 146.61781311035156 -56.90578079223632 -3.442629337310791
    vertex 146.4348907470703 -61.57316589355468 1.2573704719543457
    vertex 146.4348907470703 -61.57316589355468 -3.442629337310791
  endloop
endfacet
facet normal 0.9992328922140687 -0.03916155152068505 7.711345827597351e-16
  outer loop
    vertex 146.4348907470703 -61.57316589355468 1.2573704719543457
    vertex 146.61781311035156 -56.90578079223632 -3.442629337310791
    vertex 146.61781311035156 -56.90578079223632 1.2573704719543457
  endloop
endfacet
facet normal 0.6788718160463385 -0.7342568061502368 0.0
  outer loop
    vertex 153.92433166503906 -45.32317733764648 1.2573704719543457
    vertex 150.49464416503903 -48.49416351318359 -3.442629337310791
    vertex 153.92433166503906 -45.32317733764648 -3.442629337310791
  endloop
endfacet
facet normal 0.6788718160463385 -0.7342568061502368 0.0
  outer loop
    vertex 150.49464416503903 -48.49416351318359 -3.442629337310791
    vertex 153.92433166503906 -45.32317733764648 1.2573704719543457
    vertex 150.49464416503903 -48.49416351318359 1.2573704719543457
  endloop
endfacet
facet normal 0.9550487177748581 -0.29644889386975226 0.0
  outer loop
    vertex 148.00251770019528 -52.44477462768554 -3.442629337310791
    vertex 146.61781311035156 -56.90578079223632 1.2573704719543457
    vertex 146.61781311035156 -56.90578079223632 -3.442629337310791
  endloop
endfacet
facet normal 0.9550487177748581 -0.29644889386975226 0.0
  outer loop
    vertex 146.61781311035156 -56.90578079223632 1.2573704719543457
    vertex 148.00251770019528 -52.44477462768554 -3.442629337310791
    vertex 148.00251770019528 -52.44477462768554 1.2573704719543457
  endloop
endfacet
facet normal 1.487003023485845e-16 -3.095276251099599e-16 -1.0
  outer loop
    vertex 144.7371063232422 -47.376651763916016 34.157371520996094
    vertex 143.59091186523435 -60.454437255859375 34.157371520996094
    vertex 142.1519317626953 -52.85549926757812 34.157371520996094
  endloop
endfacet
facet normal 1.487003023485845e-16 -3.095276251099599e-16 -1.0
  outer loop
    vertex 143.59091186523435 -60.454437255859375 34.157371520996094
    vertex 144.7371063232422 -47.376651763916016 34.157371520996094
    vertex 144.1603240966797 -55.08909606933593 34.157371520996094
  endloop
endfacet
facet normal 1.487003023485845e-16 -3.095276251099599e-16 -1.0
  outer loop
    vertex 144.1603240966797 -55.08909606933593 34.157371520996094
    vertex 144.7371063232422 -47.376651763916016 34.157371520996094
    vertex 146.0989532470703 -50.05394744873046 34.157371520996094
  endloop
endfacet
facet normal 1.487003023485845e-16 -3.095276251099599e-16 -1.0
  outer loop
    vertex 146.0989532470703 -50.05394744873046 34.157371520996094
    vertex 144.7371063232422 -47.376651763916016 34.157371520996094
    vertex 148.6522216796875 -42.753578186035156 34.157371520996094
  endloop
endfacet
facet normal 1.487003023485845e-16 -3.095276251099599e-16 -1.0
  outer loop
    vertex 146.0989532470703 -50.05394744873046 34.157371520996094
    vertex 148.6522216796875 -42.753578186035156 34.157371520996094
    vertex 149.27471923828125 -45.692119598388665 34.15737152099617
  endloop
endfacet
facet normal 1.487003023485845e-16 -3.095276251099599e-16 -1.0
  outer loop
    vertex 149.27471923828125 -45.692119598388665 34.15737152099617
    vertex 148.6522216796875 -42.753578186035156 34.157371520996094
    vertex 153.63046264648435 -39.30134201049805 34.157371520996094
  endloop
endfacet
facet normal 1.487003023485845e-16 -3.095276251099599e-16 -1.0
  outer loop
    vertex 149.27471923828125 -45.692119598388665 34.15737152099617
    vertex 153.63046264648435 -39.30134201049805 34.157371520996094
    vertex 153.47122192382812 -42.3008689880371 34.157371520996094
  endloop
endfacet
facet normal 1.487003023485845e-16 -3.095276251099599e-16 -1.0
  outer loop
    vertex 153.47122192382812 -42.3008689880371 34.157371520996094
    vertex 153.63046264648435 -39.30134201049805 34.157371520996094
    vertex 158.40243530273438 -40.111305236816406 34.157371520996094
  endloop
endfacet
facet normal 1.487003023485845e-16 -3.095276251099599e-16 -1.0
  outer loop
    vertex 158.40243530273438 -40.111305236816406 34.157371520996094
    vertex 153.63046264648435 -39.30134201049805 34.157371520996094
    vertex 159.3325958251953 -37.255203247070305 34.157371520996094
  endloop
endfacet
facet normal 1.487003023485845e-16 -3.095276251099599e-16 -1.0
  outer loop
    vertex 158.40243530273438 -40.111305236816406 34.157371520996094
    vertex 159.3325958251953 -37.255203247070305 34.157371520996094
    vertex 163.73231506347656 -39.272640228271484 34.157371520996094
  endloop
endfacet
facet normal 1.487003023485845e-16 -3.095276251099599e-16 -1.0
  outer loop
    vertex 163.73231506347656 -39.272640228271484 34.157371520996094
    vertex 159.3325958251953 -37.255203247070305 34.157371520996094
    vertex 165.36999511718747 -36.75460052490234 34.157371520996094
  endloop
endfacet
facet normal 1.487003023485845e-16 -3.095276251099599e-16 -1.0
  outer loop
    vertex 163.73231506347656 -39.272640228271484 34.157371520996094
    vertex 165.36999511718747 -36.75460052490234 34.157371520996094
    vertex 165.24088285077232 -39.43273487869775 34.157371520996094
  endloop
endfacet
facet normal 1.487003023485845e-16 -3.095276251099599e-16 -1.0
  outer loop
    vertex 142.1519317626953 -52.85549926757812 34.157371520996094
    vertex 141.573486328125 -64.85415649414062 34.157371520996094
    vertex 141.07289123535156 -58.816749572753906 34.157371520996094
  endloop
endfacet
facet normal 1.487003023485845e-16 -3.095276251099599e-16 -1.0
  outer loop
    vertex 141.573486328125 -64.85415649414062 34.157371520996094
    vertex 142.1519317626953 -52.85549926757812 34.157371520996094
    vertex 143.61961364746094 -70.55628204345703 34.157371520996094
  endloop
endfacet
facet normal 1.487003023485845e-16 -3.095276251099599e-16 -1.0
  outer loop
    vertex 143.61961364746094 -70.55628204345703 34.157371520996094
    vertex 142.1519317626953 -52.85549926757812 34.157371520996094
    vertex 143.59091186523435 -60.454437255859375 34.157371520996094
  endloop
endfacet
facet normal 1.487003023485845e-16 -3.095276251099599e-16 -1.0
  outer loop
    vertex 143.61961364746094 -70.55628204345703 34.157371520996094
    vertex 143.59091186523435 -60.454437255859375 34.157371520996094
    vertex 144.42958068847656 -65.78432464599608 34.157371520996094
  endloop
endfacet
facet normal 1.487003023485845e-16 -3.095276251099599e-16 -1.0
  outer loop
    vertex 143.61961364746094 -70.55628204345703 34.157371520996094
    vertex 144.42958068847656 -65.78432464599608 34.157371520996094
    vertex 147.0718536376953 -75.53453063964844 34.15737152099617
  endloop
endfacet
facet normal 1.487003023485845e-16 -3.095276251099599e-16 -1.0
  outer loop
    vertex 147.0718536376953 -75.53453063964844 34.15737152099617
    vertex 144.42958068847656 -65.78432464599608 34.157371520996094
    vertex 146.61915588378906 -70.71553802490234 34.157371520996094
  endloop
endfacet
facet normal 1.487003023485845e-16 -3.095276251099599e-16 -1.0
  outer loop
    vertex 147.0718536376953 -75.53453063964844 34.15737152099617
    vertex 146.61915588378906 -70.71553802490234 34.157371520996094
    vertex 150.01040649414062 -74.91202545166014 34.157371520996094
  endloop
endfacet
facet normal 1.487003023485845e-16 -3.095276251099599e-16 -1.0
  outer loop
    vertex 147.0718536376953 -75.53453063964844 34.15737152099617
    vertex 150.01040649414062 -74.91202545166014 34.157371520996094
    vertex 151.69493103027344 -79.44964599609375 34.157371520996094
  endloop
endfacet
facet normal 1.487003023485845e-16 -3.095276251099599e-16 -1.0
  outer loop
    vertex 151.69493103027344 -79.44964599609375 34.157371520996094
    vertex 150.01040649414062 -74.91202545166014 34.157371520996094
    vertex 154.3722381591797 -78.08779907226562 34.157371520996094
  endloop
endfacet
facet normal 1.487003023485845e-16 -3.095276251099599e-16 -1.0
  outer loop
    vertex 151.69493103027344 -79.44964599609375 34.157371520996094
    vertex 154.3722381591797 -78.08779907226562 34.157371520996094
    vertex 157.1737823486328 -82.03481292724608 34.157371520996094
  endloop
endfacet
facet normal 1.487003023485845e-16 -3.095276251099599e-16 -1.0
  outer loop
    vertex 157.1737823486328 -82.03481292724608 34.157371520996094
    vertex 154.3722381591797 -78.08779907226562 34.157371520996094
    vertex 159.40737915039062 -80.02644348144531 34.15737152099617
  endloop
endfacet
facet normal 1.487003023485845e-16 -3.095276251099599e-16 -1.0
  outer loop
    vertex 157.1737823486328 -82.03481292724608 34.157371520996094
    vertex 159.40737915039062 -80.02644348144531 34.15737152099617
    vertex 163.13502502441403 -83.11386871337889 34.157371520996094
  endloop
endfacet
facet normal 1.487003023485845e-16 -3.095276251099599e-16 -1.0
  outer loop
    vertex 163.13502502441403 -83.11386871337889 34.157371520996094
    vertex 159.40737915039062 -80.02644348144531 34.15737152099617
    vertex 163.26413744857655 -80.43573108748022 34.1573715209961
  endloop
endfacet
facet normal 2.631527877799223e-16 -9.162280065883176e-18 -1.0
  outer loop
    vertex 165.36999511718747 -36.75460052490234 34.157371520996094
    vertex 169.09765624999997 -39.8420295715332 34.157371520996094
    vertex 165.24088285077232 -39.43273487869775 34.157371520996094
  endloop
endfacet
facet normal 2.631527877799223e-16 -9.162280065883176e-18 -1.0
  outer loop
    vertex 169.09765624999997 -39.8420295715332 34.157371520996094
    vertex 165.36999511718747 -36.75460052490234 34.157371520996094
    vertex 171.33123779296875 -37.83365249633789 34.157371520996094
  endloop
endfacet
facet normal 2.631527877799223e-16 -9.162280065883176e-18 -1.0
  outer loop
    vertex 169.09765624999997 -39.8420295715332 34.157371520996094
    vertex 171.33123779296875 -37.83365249633789 34.157371520996094
    vertex 174.1327972412109 -41.78066635131836 34.157371520996094
  endloop
endfacet
facet normal 2.631527877799223e-16 -9.162280065883176e-18 -1.0
  outer loop
    vertex 174.1327972412109 -41.78066635131836 34.157371520996094
    vertex 171.33123779296875 -37.83365249633789 34.157371520996094
    vertex 176.81010437011716 -40.41882705688476 34.157371520996094
  endloop
endfacet
facet normal 2.631527877799223e-16 -9.162280065883176e-18 -1.0
  outer loop
    vertex 174.1327972412109 -41.78066635131836 34.157371520996094
    vertex 176.81010437011716 -40.41882705688476 34.157371520996094
    vertex 178.49462890625 -44.95643997192383 34.157371520996094
  endloop
endfacet
facet normal 2.631527877799223e-16 -9.162280065883176e-18 -1.0
  outer loop
    vertex 178.49462890625 -44.95643997192383 34.157371520996094
    vertex 176.81010437011716 -40.41882705688476 34.157371520996094
    vertex 181.43318176269528 -44.33393859863281 34.15737152099617
  endloop
endfacet
facet normal 2.631527877799223e-16 -9.162280065883176e-18 -1.0
  outer loop
    vertex 178.49462890625 -44.95643997192383 34.157371520996094
    vertex 181.43318176269528 -44.33393859863281 34.15737152099617
    vertex 181.88587951660153 -49.15292739868164 34.157371520996094
  endloop
endfacet
facet normal 2.631527877799223e-16 -9.162280065883176e-18 -1.0
  outer loop
    vertex 181.88587951660153 -49.15292739868164 34.157371520996094
    vertex 181.43318176269528 -44.33393859863281 34.15737152099617
    vertex 184.88540649414062 -49.31218719482421 34.157371520996094
  endloop
endfacet
facet normal 2.631527877799223e-16 -9.162280065883176e-18 -1.0
  outer loop
    vertex 181.88587951660153 -49.15292739868164 34.157371520996094
    vertex 184.88540649414062 -49.31218719482421 34.157371520996094
    vertex 184.07545471191403 -54.08414077758789 34.157371520996094
  endloop
endfacet
facet normal 2.631527877799223e-16 -9.162280065883176e-18 -1.0
  outer loop
    vertex 184.07545471191403 -54.08414077758789 34.157371520996094
    vertex 184.88540649414062 -49.31218719482421 34.157371520996094
    vertex 184.91410827636716 -59.41403198242187 34.157371520996094
  endloop
endfacet
facet normal 2.631527877799223e-16 -9.162280065883176e-18 -1.0
  outer loop
    vertex 184.91410827636716 -59.41403198242187 34.157371520996094
    vertex 184.88540649414062 -49.31218719482421 34.157371520996094
    vertex 186.9315490722656 -55.01430892944335 34.157371520996094
  endloop
endfacet
facet normal 2.631527877799223e-16 -9.162280065883176e-18 -1.0
  outer loop
    vertex 184.91410827636716 -59.41403198242187 34.157371520996094
    vertex 186.9315490722656 -55.01430892944335 34.157371520996094
    vertex 186.3531036376953 -67.01296997070312 34.157371520996094
  endloop
endfacet
facet normal 2.631527877799223e-16 -9.162280065883176e-18 -1.0
  outer loop
    vertex 186.3531036376953 -67.01296997070312 34.157371520996094
    vertex 186.9315490722656 -55.01430892944335 34.157371520996094
    vertex 187.43214416503906 -61.05171585083007 34.157371520996094
  endloop
endfacet
facet normal 2.631527877799223e-16 -9.162280065883176e-18 -1.0
  outer loop
    vertex 163.26413744857655 -80.43573108748022 34.1573715209961
    vertex 169.17243957519528 -82.61326599121092 34.157371520996094
    vertex 163.13502502441403 -83.11386871337889 34.157371520996094
  endloop
endfacet
facet normal 2.631527877799223e-16 -9.162280065883176e-18 -1.0
  outer loop
    vertex 169.17243957519528 -82.61326599121092 34.157371520996094
    vertex 163.26413744857655 -80.43573108748022 34.1573715209961
    vertex 164.77272033691403 -80.5958251953125 34.157371520996094
  endloop
endfacet
facet normal 2.631527877799223e-16 -9.162280065883176e-18 -1.0
  outer loop
    vertex 169.17243957519528 -82.61326599121092 34.157371520996094
    vertex 164.77272033691403 -80.5958251953125 34.157371520996094
    vertex 170.10260009765625 -79.75716400146483 34.157371520996094
  endloop
endfacet
facet normal 2.631527877799223e-16 -9.162280065883176e-18 -1.0
  outer loop
    vertex 169.17243957519528 -82.61326599121092 34.157371520996094
    vertex 170.10260009765625 -79.75716400146483 34.157371520996094
    vertex 174.87455749511716 -80.56712341308594 34.157371520996094
  endloop
endfacet
facet normal 2.631527877799223e-16 -9.162280065883176e-18 -1.0
  outer loop
    vertex 174.87455749511716 -80.56712341308594 34.157371520996094
    vertex 170.10260009765625 -79.75716400146483 34.157371520996094
    vertex 175.03382873535156 -77.56759643554688 34.157371520996094
  endloop
endfacet
facet normal 2.631527877799223e-16 -9.162280065883176e-18 -1.0
  outer loop
    vertex 174.87455749511716 -80.56712341308594 34.157371520996094
    vertex 175.03382873535156 -77.56759643554688 34.157371520996094
    vertex 179.8528137207031 -77.1148910522461 34.157371520996094
  endloop
endfacet
facet normal 2.631527877799223e-16 -9.162280065883176e-18 -1.0
  outer loop
    vertex 179.8528137207031 -77.1148910522461 34.157371520996094
    vertex 175.03382873535156 -77.56759643554688 34.157371520996094
    vertex 179.23031616210935 -74.17634582519531 34.15737152099617
  endloop
endfacet
facet normal 2.631527877799223e-16 -9.162280065883176e-18 -1.0
  outer loop
    vertex 179.8528137207031 -77.1148910522461 34.157371520996094
    vertex 179.23031616210935 -74.17634582519531 34.15737152099617
    vertex 182.4060821533203 -69.81452178955078 34.157371520996094
  endloop
endfacet
facet normal 2.631527877799223e-16 -9.162280065883176e-18 -1.0
  outer loop
    vertex 179.8528137207031 -77.1148910522461 34.157371520996094
    vertex 182.4060821533203 -69.81452178955078 34.157371520996094
    vertex 183.7679290771484 -72.49182128906249 34.157371520996094
  endloop
endfacet
facet normal 2.631527877799223e-16 -9.162280065883176e-18 -1.0
  outer loop
    vertex 183.7679290771484 -72.49182128906249 34.157371520996094
    vertex 182.4060821533203 -69.81452178955078 34.157371520996094
    vertex 184.34472656249997 -64.77937316894531 34.157371520996094
  endloop
endfacet
facet normal 2.631527877799223e-16 -9.162280065883176e-18 -1.0
  outer loop
    vertex 183.7679290771484 -72.49182128906249 34.157371520996094
    vertex 184.34472656249997 -64.77937316894531 34.157371520996094
    vertex 186.3531036376953 -67.01296997070312 34.157371520996094
  endloop
endfacet
facet normal 2.631527877799223e-16 -9.162280065883176e-18 -1.0
  outer loop
    vertex 186.3531036376953 -67.01296997070312 34.157371520996094
    vertex 184.34472656249997 -64.77937316894531 34.157371520996094
    vertex 184.91410827636716 -59.41403198242187 34.157371520996094
  endloop
endfacet
endsolid Frie_adapter_obj_V2
